<svg xmlns="http://www.w3.org/2000/svg" viewBox="0 0 64 64">
  <!-- Squire: a shield sheltering a spoken word (waveform) landing on an open rulebook -->
  <path d="M32 3.5 L57 11.5 V29 C57 45.5 46.5 56.5 32 61.5 C17.5 56.5 7 45.5 7 29 V11.5 Z"
        fill="#1f1913" stroke="#d4a13f" stroke-width="3.4" stroke-linejoin="round"/>
  <!-- waveform -->
  <g stroke="#d4a13f" stroke-width="3" stroke-linecap="round">
    <line x1="19" y1="21.5" x2="19" y2="26.5"/>
    <line x1="25.5" y1="18.5" x2="25.5" y2="29.5"/>
    <line x1="32" y1="15" x2="32" y2="33"/>
    <line x1="38.5" y1="18.5" x2="38.5" y2="29.5"/>
    <line x1="45" y1="21.5" x2="45" y2="26.5"/>
  </g>
  <!-- open book -->
  <path d="M15.5 40 C21.5 36.5 27.5 36.5 32 39.5 C36.5 36.5 42.5 36.5 48.5 40 V49.5 C42.5 46 36.5 46 32 49 C27.5 46 21.5 46 15.5 49.5 Z"
        fill="#2a2118" stroke="#d4a13f" stroke-width="2.6" stroke-linejoin="round"/>
  <line x1="32" y1="39.5" x2="32" y2="49" stroke="#d4a13f" stroke-width="2.2"/>
</svg>
